<?xml version="1.0" encoding="UTF-8"?>
<svg id="Layer_1" xmlns="http://www.w3.org/2000/svg" version="1.1" viewBox="0 0 274.59 114.1">
  <!-- Generator: Adobe Illustrator 29.5.1, SVG Export Plug-In . SVG Version: 2.1.0 Build 141)  -->
  <defs>
    <style>
      .st0 {
        fill: #004990;
      }
    </style>
  </defs>
  <path class="st0" d="M74.07,43.01c-9.41,0-16.44,7.16-16.44,16.81,0,.05,0,.1,0,.15,0,0,0,0,0,0,0,1.02-.16,1.78-.51,2.53-3.65,7.39-9.29,11.09-16.86,11.09-10.93,0-18.47-10.11-18.47-25.49,0-13.14,6.27-23.07,17.96-23.07,8.39,0,13.39,4.2,15.76,13.86h1.44v-15.29h-1.35c-.51,1.08-1.36,1.61-2.63,1.61-2.88,0-7.46-2.14-13.56-2.14-14.49,0-25.08,11.98-25.08,28.26,0,17.08,12.2,25.49,23.89,25.49,9.05,0,16.58-4.81,19.95-12.55,1.81,7.25,8,12.28,15.88,12.28,9.4,0,16.43-7.15,16.43-16.72s-7.03-16.81-16.43-16.81ZM74.07,74.76c-6.95,0-10.17-6.8-10.17-14.93,0-9.12,3.82-15.02,10.17-15.02,6.95,0,10.17,7.06,10.17,15.02s-3.05,14.93-10.17,14.93ZM101.29,69.57V19.41h-1.44l-10.34,1.08v1.52h1.95c3.13,0,4.07,1.25,4.07,4.29v41.76c0,4.65-.94,5.99-3.98,5.99h-1.52v1.52h16.69v-1.52h-.76c-3.64,0-4.66-1.07-4.66-4.47ZM127.08,43.01c-3.65,0-7.54,1.79-10.08,4.74v-28.34h-1.44l-9.66,1.08v1.52c4.83,0,5.33.63,5.33,5.45v47.48c4.07.71,6.86.99,9.32.99,15.42,0,20.42-9.93,20.42-17.44,0-8.68-6.09-15.47-13.89-15.47ZM122.08,74.31c-4.15,0-5.08-1.97-5.08-6.17v-18.06c2.37-3.13,4.66-4.47,7.71-4.47,4.58,0,10,4.57,10,13.59,0,10.82-6.02,15.12-12.63,15.12ZM161,43.99v1.52c3.3.18,3.56,2.23,2.38,5.99l-5.26,16.72-7.2-17.88c-1.1-2.69-.17-4.47,2.12-4.83v-1.52h-14.4v1.52c3.47.08,4.58,1.07,6.1,4.74l10.77,26.2-3.9,11.44c-2.68,7.18-7.56,4.97-8.74,4.43l-.28,6.43c1.15.36.82.36,2.06.36,3.64,0,5.78-1.56,8.16-8.89l11.94-37.29c1.7-5.28,3.65-7.42,6.87-7.42v-1.52h-10.59Z"/>
  <path class="st0" d="M260.24,49.34c0-18.86-15.22-34.22-34.12-34.35-.08,0-.16,0-.25,0-18.86,0-34.22,15.23-34.35,34.12v.24c0,18.88,15.23,34.23,34.12,34.37.08,0,.16,0,.24,0,18.87,0,34.22-15.23,34.36-34.13h-.15s.15,0,.15,0c0-.08,0-.16,0-.24ZM259.95,49.58c-.13,18.75-15.35,33.84-34.06,33.84-.08,0-.16,0-.24,0-18.73-.13-33.82-15.36-33.82-34.07v-.24c.13-18.73,15.36-33.83,34.06-33.83h.24c18.73.13,33.83,15.36,33.83,34.06,0,.08,0,.16,0,.24ZM226.15,16.11c-.08,0-.16,0-.24,0-18.25,0-33.11,14.73-33.24,33.01,0,.08,0,.16,0,.24,0,18.26,14.73,33.12,33.01,33.24.08,0,.16,0,.24,0,18.25,0,33.1-14.73,33.23-33.02h-.27s.27,0,.27,0v-.24c0-18.25-14.73-33.1-33-33.23ZM258.62,49.58c-.13,17.99-14.74,32.48-32.69,32.48h-.24c-17.98-.13-32.48-14.74-32.48-32.71v-.23c.12-17.98,14.75-32.47,32.7-32.48,0,0,0,0,0,0,.08,0,.16,0,.23,0,17.98.12,32.47,14.74,32.47,32.69v.23ZM226.09,25.82c-13-.09-23.61,10.37-23.7,23.37-.09,13.01,10.38,23.62,23.37,23.71,13,.09,23.62-10.37,23.71-23.38.09-13-10.38-23.61-23.38-23.7ZM235.32,45.51l11.77-1.79-11.1,4.31s0,.04,0,.05l11.84,1.32-11.84,1.29s0,.04,0,.05l11.09,4.34-11.77-1.82s-.01.04-.02.06l9.59,7.07-10.91-4.82s-.02.03-.03.04l7.44,9.32-9.29-7.48s-.03.02-.04.03l4.78,10.93-7.04-9.62s-.03.01-.05.02l1.79,11.79-4.31-11.12s-.03,0-.05,0l-1.32,11.86-1.29-11.87s-.03,0-.05,0l-4.34,11.11,1.82-11.79s-.03-.01-.05-.02l-7.07,9.61,4.81-10.92s-.02-.02-.04-.03l-9.32,7.45,7.47-9.31s-.02-.02-.03-.04l-10.93,4.79,9.62-7.05s-.01-.03-.02-.05l-11.79,1.79,11.12-4.31s0-.03,0-.05l-11.86-1.33,11.86-1.29s0-.03,0-.05l-11.11-4.35,11.78,1.82s.01-.03.02-.05l-9.6-7.07,10.9,4.81s.02-.03.03-.04l-7.44-9.31,9.29,7.46s.03-.02.04-.03l-4.78-10.92,7.04,9.61s.04-.01.06-.02l-1.79-11.78,4.31,11.1s.04,0,.06,0l1.32-11.84,1.29,11.84s.04,0,.06,0l4.34-11.09-1.82,11.76s.04.02.06.02l7.06-9.58-4.8,10.89s.03.02.05.04l9.3-7.43-7.46,9.28s.02.03.04.05l10.91-4.77-9.61,7.03s.02.04.02.06ZM250.92,49.52h-.29s.29,0,.29,0v-.18c0-13.72-11.07-24.89-24.82-24.99-.06,0-.12,0-.18,0-13.72,0-24.89,11.08-24.99,24.82,0,.06,0,.12,0,.18,0,13.74,11.08,24.91,24.82,25h.18c13.72,0,24.89-11.07,24.99-24.83ZM225.93,73.77h-.17c-13.41-.1-24.23-11-24.23-24.41,0-.06,0-.12,0-.17.09-13.42,11-24.23,24.4-24.23h0c.06,0,.12,0,.17,0,13.42.09,24.23,11,24.23,24.4v.17c-.09,13.44-11,24.25-24.4,24.25ZM250.36,36.28c-.48.24-.64.81-.36,1.38.27.57.89.82,1.41.56.39-.19.62-.56.72-1.18.48.34.83.33,1.1.2.45-.22.6-.76.35-1.27-.26-.55-.79-.75-1.29-.51-.38.19-.61.58-.62,1.11-.54-.38-.92-.47-1.3-.29ZM251.07,37.95c-.34.17-.71.03-.88-.32-.19-.39-.01-.84.41-1.05.34-.17.69-.11,1.02.15-.02.62-.19,1.06-.54,1.22ZM252.64,35.69c.3-.14.64-.01.79.3.18.37,0,.76-.42.97-.27.13-.55.17-.87-.06.05-.72.19-1.06.49-1.21ZM254.27,39.66l-2.47.83c-.34.11-.42.05-.52-.24l-.09.03.39,1.16.09-.04c-.1-.31-.06-.39.27-.5l3.19-1.07-.04-.11c-.23-.06-.55-.32-.89-.65l-.11.04c.1.25.28.4.29.45.01.03,0,.06-.11.09ZM251,32.73s.01.05-.09.12l-2.18,1.42c-.3.2-.39.16-.56-.1l-.09.05.67,1.02.08-.06c-.18-.27-.16-.36.13-.56l2.81-1.83-.06-.09c-.24,0-.62-.17-1.03-.4l-.09.06c.15.21.37.32.39.36ZM255.28,43.97c-.41.08-.84-.09-1.17-.96l-.11.02c.02.1.07.29.09.38.13.66-.47,1.03-.83,1.1-.52.1-.87-.25-.96-.67-.05-.25,0-.48.16-.79l-.09-.06c-.24.36-.31.63-.23,1.01.14.69.7,1.08,1.38.94.51-.1.83-.48.86-1.03h0c.36.52.79.53,1,.49.47-.09.76-.55.66-1.07-.09-.41-.37-.7-.74-.76l-.03.11c.27.07.46.26.51.52.07.37-.15.69-.52.77ZM231.49,77.53c-.14,0-.26.12-.26.26,0,.14.11.26.26.26s.26-.12.26-.26c0-.15-.11-.27-.26-.27ZM205.78,69.75c-.14,0-.26.11-.26.26,0,.15.11.26.25.27.14,0,.26-.12.27-.26,0-.14-.12-.26-.26-.26ZM197.9,51.77c0-.44-.35-.8-.79-.8-.43,0-.79.35-.79.79,0,.43.35.79.78.79.44,0,.8-.34.8-.78ZM254.75,50.97c-.43,0-.79.35-.79.78,0,.44.35.79.78.79.44,0,.79-.34.8-.78,0-.44-.34-.79-.79-.79ZM197.82,60.33l-.18-.49c-.09-.25-.07-.34.16-.43l1.71-.62c.36-.14.48-.06.62.26l.12-.04-.49-1.35-.12.05c.07.29.1.45-.31.6l-1.55.56c-.42.15-.5.01-.63-.26l-.12.04.79,2.2.83-.06-.04-.12c-.6-.02-.69-.02-.81-.36ZM202.71,64.33l.11-.06-.69-1.27-.09.05c.14.32.15.45-.23.65l-1.35.75c-.28-.03-.71-.08-.95-.51-.09-.17-.13-.43.03-.69.1-.16.28-.3.59-.47l.89-.49c.37-.21.48-.08.66.17l.11-.07-.69-1.24-.11.06c.12.28.17.44-.21.65l-1.01.55c-.18.1-.4.23-.55.46-.09.16-.25.56.03,1.07.28.51.67.56,1.02.61l-.46.25.47.86.11-.06c-.12-.28-.17-.44.21-.65l1.44-.8c.38-.21.48-.08.66.17ZM204.71,66.99s.1.16,0,.23c-.08.06-.19.07-.31.07h-.73s.18-.75.18-.75c.04-.18.05-.21.11-.25.09-.07.19.02.23.06l.1-.08-.8-1.02-.11.08c.14.24.16.34.06.76l-.31,1.18-1.09-.03c-.36,0-.5-.04-.73-.27l-.1.08.68.87.1-.08c-.05-.1-.12-.25,0-.34.04-.04.17-.05.3-.05l.79.02-.17.71c-.06.25-.07.28-.13.33-.14.11-.27,0-.34-.08l-.1.08.83,1.04.1-.08c-.11-.2-.12-.26,0-.71l.32-1.3.87.02c.39,0,.62,0,.88.35l.1-.08-.66-.83-.1.08ZM208.31,73.2l.61-2.25-.74-.55-.08.1c.15.15.19.21.24.38l-1.29,1.42c-.3.32-.46.32-.72.18l-.08.1.82.61.08-.1c-.22-.25-.19-.44.04-.69l1.17-1.28-.68,2.51.11.08,2.24-1.36-.87,1.41-.13.18c-.21.28-.33.22-.58.09l-.08.11,1.11.83.07-.1c-.21-.21-.32-.31-.04-.78l.74-1.22s.14-.21.16-.25c.16-.21.4-.09.53-.02l.08-.11-.73-.54-2.01,1.21ZM212.38,73.45c.29.18.38.28.19.65l-.75,1.47c-.2.39-.33.37-.64.24l-.06.12,2.14,1.08.37-.44-.12-.06c-.33.29-.59.18-.77.09l-.38-.19c-.26-.13-.31-.16-.09-.59l.33-.66.44.23c.4.2.3.41.23.56l.11.05.44-.86-.11-.05c-.08.13-.21.33-.59.14l-.45-.23.56-1.12.6.31c.22.11.5.25.37.66l.12.06.21-.5-2.1-1.07-.06.11ZM218.14,75.88c.28.12.43.2.29.62l-.47,1.47-1.3-2.7-.82-.27-.04.13c.48.25.41.47.32.76l-.47,1.45c-.13.42-.29.4-.58.34l-.04.12,1.13.37.04-.12-.15-.05c-.31-.1-.26-.37-.19-.58l.52-1.6,1.45,2.92.11.04.71-2.2c.13-.41.3-.39.59-.33l.04-.13-1.09-.35-.04.12ZM222.66,76.7l-1.56-.24c-.25-.03-.31-.1-.41-.21l-.12-.02-.16.89h.12c.05-.15.15-.53.63-.46l.43.06-.31,2.06c-.07.43-.23.44-.54.42v.13s1.4.21,1.4.21l.02-.13c-.28-.07-.44-.13-.37-.56l.32-2.06.43.07c.48.07.47.47.46.64l.11.02.12-.89-.12-.02c-.12.07-.2.11-.45.08ZM224.37,76.99c.3.04.46.08.45.51l-.06,1.65c-.02.44-.18.47-.49.48v.13s1.43.05,1.43.05v-.13c-.29-.04-.45-.08-.44-.52l.05-1.65c.02-.43.18-.45.48-.48v-.13s-1.42-.04-1.42-.04v.13ZM228.24,78c-.64-.33-.77-.4-.79-.65-.02-.2.14-.44.46-.46.41-.03.66.25.74.71h.11s-.05-.84-.05-.84h-.12s-.08.08-.16.09c-.05,0-.05,0-.29-.05-.09-.02-.18-.02-.28-.02-.53.03-.79.43-.76.82.03.42.38.62.69.79.56.29.78.4.81.74.02.31-.24.53-.5.54-.46.03-.7-.37-.81-.81h-.13s.06.94.06.94h.12s.03-.12.12-.12c.04,0,.09,0,.12.02.3.12.41.12.53.11.59-.04.89-.51.87-.89-.02-.33-.22-.64-.76-.91ZM234.99,76.64c-.71-.16-.85-.2-.93-.44-.06-.19.03-.46.34-.56.39-.13.7.08.89.5l.11-.04-.26-.8-.11.04s-.06.09-.13.12c-.04.01-.05.02-.29.02-.09,0-.18.02-.28.05-.5.16-.66.61-.54.98.13.41.52.53.86.61.61.14.86.2.96.52.1.3-.1.56-.35.65-.45.14-.77-.19-.99-.6l-.12.05.29.89.12-.04s0-.11.09-.14c.04-.01.09-.01.12,0,.32.05.42.02.54-.02.56-.18.74-.71.62-1.08-.1-.31-.36-.56-.95-.7ZM239.25,76.6c-.48.23-1.19.09-1.58-.73-.27-.58-.27-1.36.39-1.66.2-.09.48-.17.86.04.15.08.22.17.36.32l.11-.06-.45-.83-.11.05c-.04.07-.06.11-.11.14-.05.02-.12.04-.17.06-.14.02-.42.09-.65.2-.7.33-1.11,1.26-.74,2.05.28.6,1.1,1.13,2.02.7.79-.37.83-.96.84-1.17l-.12-.03c-.11.66-.59.88-.66.91ZM242.16,74.43l-.88-1.4c-.23-.37-.11-.47.13-.66l-.07-.11-1.21.76.07.11c.27-.14.42-.2.66.17l.88,1.4c.23.37.11.48-.13.67l.07.11,1.21-.76-.07-.11c-.27.14-.42.2-.66-.18ZM245.75,71.84c.13.43-.07.62-.23.75l-.34.27c-.22.18-.27.22-.58-.16l-.46-.57.39-.32c.34-.28.49-.1.61.02l.1-.08-.61-.75-.1.08c.09.13.22.33-.11.6l-.39.32-.78-.97.52-.42c.19-.16.43-.34.75-.07l.1-.09-.38-.39-1.83,1.47.08.1c.28-.19.41-.23.67.09l1.03,1.28c.28.34.2.45-.05.68l.08.1,1.86-1.51-.25-.52-.1.08ZM247.83,66.49l-.09-.08-.77.85.1.08c.22-.2.36-.31.68-.02l1.16,1.03-2.99.09-.58.64.1.08c.42-.33.59-.18.82.03l1.13,1.01c.33.29.25.42.07.67l.09.09.79-.89-.1-.08-.11.12c-.21.24-.44.08-.6-.06l-1.25-1.13,3.26-.14.07-.09-1.72-1.54c-.32-.29-.24-.43-.06-.68ZM251.27,65.22l-1.76-1.12.24-.37c.26-.41.62-.23.77-.17l.06-.09-.76-.47-.07.1c.01.14.02.23-.12.44l-.85,1.33c-.13.21-.22.25-.35.29l-.06.11.74.5.07-.1c-.13-.11-.44-.36-.18-.77l.24-.37,1.75,1.12c.37.24.31.39.18.66l.11.06.77-1.21-.11-.07c-.18.24-.3.35-.67.12ZM252.95,62.16l-1.49-.72c-.39-.19-.35-.35-.24-.63l-.12-.06-.62,1.29.12.06c.16-.27.25-.39.64-.2l1.49.72c.4.2.35.35.25.64l.11.05.63-1.29-.12-.06c-.15.26-.25.39-.65.2ZM254.44,58.1l-2.37.02-.12.38,1.83,1.46c.41.33.45.42.42.7l.12.04.29-.86-.12-.05c-.04.08-.16.27-.34.2-.04-.01-.12-.05-.17-.11l-.47-.37.32-.92h.64c.05-.01.16,0,.21.01.15.05.12.22.08.37l.12.04.43-1.25-.12-.04c-.14.33-.27.35-.75.36ZM253.34,59.41l-1-.8h1.27s-.27.8-.27.8ZM197.49,44.93c.84.19,2.05-.26,2.35-1.6.25-1.16-.32-1.68-.52-1.87l-.13.1c.59.67.43,1.36.41,1.47-.15.7-.88,1.35-2.03,1.1-.82-.18-1.62-.81-1.41-1.78.06-.29.22-.66.74-.9.19-.09.35-.11.63-.12l.03-.15-1.22-.2-.03.16c.04.1.07.15.05.23-.02.07-.06.15-.08.22-.08.17-.24.53-.31.87-.23,1.03.4,2.23,1.53,2.48ZM198.75,39.65c.91.41,2.17.02,2.73-1.24.57-1.26.06-2.48-.87-2.89-1.05-.47-2.25.13-2.77,1.29-.52,1.16-.06,2.4.9,2.84ZM198.02,36.86c.25-.55.94-1.2,2.26-.61,1.27.57,1.31,1.49,1.04,2.09-.37.81-1.23,1.05-2.23.6-.91-.4-1.48-1.16-1.07-2.08ZM200.81,33.2l1.78,1.22c.48.32.38.53.19.89l.14.09,1.79-2.6-.69-.85-.11.14c.43.66.5.76.22,1.15l-.39.58c-.2.29-.32.34-.58.16l-1.96-1.35c-.41-.29-.41-.47-.17-.88l-.14-.09-1.1,1.59.14.1c.27-.31.43-.47.89-.15ZM203.74,29.35l1.54,1.51c.41.4.29.6,0,.94l.12.12,1.29-1.31c.94-.97.95-1.61.54-2.01-.53-.52-1.19-.08-1.56.17.16-.26.53-.92.07-1.36-.21-.21-.84-.4-1.7.47l-1.32,1.35.12.11c.31-.26.49-.39.9,0ZM206.68,29.18c.33.33.38.8-.1,1.3-.3.31-.46.24-.76-.04l-.82-.81.37-.37c.24-.24.81-.58,1.32-.08ZM204.05,28.12c.46-.47.89-.49,1.22-.17.28.28.41.69-.17,1.28l-.25.26-1.09-1.07.29-.3ZM207.62,25.64l1.42.52.58.82c.33.47.18.63-.13.9l.1.14,1.63-1.16-.1-.14c-.4.25-.6.33-.94-.14l-.58-.82v-1.52c0-.65.17-.8.37-.95l-.1-.14-1.11.79.09.14c.16-.08.31-.13.41.02.07.1.08.24.08.29v1.23s-1.08-.41-1.08-.41c-.27-.1-.3-.12-.36-.2-.09-.13-.02-.18.19-.38l-.1-.14-1.5,1.06.1.14c.17-.11.44-.27,1.03-.05ZM217.09,24.09c1.11-.4,1.25-1.16,1.3-1.44l-.16-.05c-.25.85-.92,1.09-1.02,1.13-.68.24-1.61-.02-2.01-1.14-.28-.78-.17-1.81.75-2.14.28-.1.67-.16,1.16.15.17.11.28.24.44.47l.15-.06-.48-1.14-.15.05c-.07.09-.1.14-.18.17-.06.03-.16.04-.22.05-.18.02-.58.08-.9.2-.99.35-1.67,1.53-1.28,2.61.3.82,1.32,1.6,2.61,1.14ZM222.13,22.87c1.37-.19,2.13-1.27,1.99-2.28-.16-1.14-1.3-1.83-2.57-1.66-1.26.18-2.07,1.22-1.92,2.28.14.99,1.14,1.85,2.5,1.66ZM221.62,19.11c.6-.08,1.52.16,1.72,1.58.19,1.38-.57,1.91-1.22,2-.89.13-1.55-.49-1.69-1.57-.14-.99.2-1.87,1.19-2.02ZM228.96,21.57h-.18c-.33.71-.38.81-.86.79l-.69-.03c-.36-.01-.47-.09-.45-.4l.1-2.37c.02-.51.17-.6.65-.62v-.17s-1.92-.08-1.92-.08v.17c.4.06.61.1.59.67l-.08,2.16c-.03.58-.24.61-.66.63v.17s3.16.13,3.16.13l.35-1.04ZM233.67,22.5l-.18-.04c-.45.65-.51.75-.98.64l-.68-.14c-.35-.07-.44-.17-.38-.48l.5-2.32c.11-.5.27-.56.75-.5l.03-.17-1.88-.4-.03.17c.39.12.59.21.47.76l-.46,2.11c-.12.56-.34.55-.75.51l-.04.16,3.09.67.52-.97ZM237.88,24.46l-.17-.06c-.41.41-.77.3-1.02.2l-.54-.22c-.37-.15-.44-.18-.21-.77l.36-.9.63.26c.55.22.45.5.39.71l.15.07.47-1.17-.15-.07c-.1.19-.24.46-.78.24l-.63-.25.61-1.51.84.34c.31.13.7.28.59.83l.16.06.21-.69-2.95-1.19-.06.16c.4.2.54.33.34.83l-.81,2c-.21.53-.38.51-.82.37l-.06.16,3,1.21.45-.62ZM240.63,27c.07.05.68.42,1.18.62l.48-.73c.15-.24.45-.33.65-.2l.18.11.09-.14-1.75-1.12-.09.14.18.12c.42.27.28.53.17.71l-.14.21c-.2.31-.5.31-.89.05-.75-.49-.84-1.49-.28-2.35.51-.8,1.43-1.14,2.16-.66.33.21.61.57.68.95.05.23-.01.46-.11.72l.14.09.61-1.06-.14-.09c-.07,0-.17,0-.29-.07-.07-.05-.12-.09-.16-.13-.32-.31-.4-.39-.65-.55-1.24-.79-2.5-.28-2.97.46-.37.58-.67,1.89.93,2.92ZM243.31,28.64l-.12.13,2.35,2.23.63-.41-.13-.12c-.54.23-.82,0-1.03-.19l-.43-.41c-.29-.27-.34-.33.1-.79l.66-.7.49.47c.43.41.24.63.1.81l.12.11.87-.91-.12-.12c-.16.14-.4.34-.81-.06l-.49-.46,1.13-1.18.66.62c.25.23.54.51.24.99l.13.12.45-.56-2.3-2.19-.12.12c.3.35.39.5,0,.9l-1.49,1.56c-.39.41-.55.33-.9.04Z"/>
</svg>